<svg xmlns="http://www.w3.org/2000/svg" width="26" height="26" viewBox="0 0 26 26">
  <path id="Path_9" data-name="Path 9" d="M25.5,14A11.5,11.5,0,1,0,14,25.5,11.5,11.5,0,0,0,25.5,14ZM27,14A13,13,0,1,1,14,1,13,13,0,0,1,27,14ZM7.479,14h.152a.376.376,0,0,1,.3.591,5.631,5.631,0,0,0-.951,3.133v.5A3,3,0,0,0,7,18.578.373.373,0,0,1,6.637,19H6.123A1.65,1.65,0,0,1,4.5,17.327,3.1,3.1,0,0,1,7.479,14Zm13.042,0A3.1,3.1,0,0,1,23.5,17.327,1.65,1.65,0,0,1,21.878,19h-.514A.372.372,0,0,1,21,18.578a3.23,3.23,0,0,0,.02-.357v-.5a5.63,5.63,0,0,0-.95-3.133.375.375,0,0,1,.3-.591ZM8.25,13a2.138,2.138,0,0,1-2-2.25,2.014,2.014,0,1,1,4,0A2.138,2.138,0,0,1,8.25,13Zm11.5,0a2.138,2.138,0,0,1-2-2.25,2.014,2.014,0,1,1,4,0A2.138,2.138,0,0,1,19.75,13Zm-4.578.5A4.282,4.282,0,0,1,19.5,17.724v.5A1.8,1.8,0,0,1,17.677,20H10.323A1.8,1.8,0,0,1,8.5,18.221v-.5A4.282,4.282,0,0,1,12.828,13.5ZM16.75,9A2.886,2.886,0,0,1,14,12a2.886,2.886,0,0,1-2.75-3A2.675,2.675,0,0,1,14,6,2.674,2.674,0,0,1,16.75,9Z" transform="translate(-1 -1)" fill="#606770"/>
</svg>
