<svg xmlns="http://www.w3.org/2000/svg" width="23" height="22.5" viewBox="0 0 23 22.5">
  <path id="Path_10" data-name="Path 10" d="M8.75,25.25a.75.75,0,0,1,0-1.5h10.5a.75.75,0,0,1,0,1.5Zm8.413-12.4-5.108,3.077a.7.7,0,0,1-1.055-.6V9.172a.7.7,0,0,1,1.055-.6l5.108,3.078A.7.7,0,0,1,17.163,12.846Zm4.587,7.4A2.251,2.251,0,0,0,24,18V6.5a2.251,2.251,0,0,0-2.25-2.25H6.25A2.251,2.251,0,0,0,4,6.5V18a2.251,2.251,0,0,0,2.25,2.25Zm0,1.5H6.25A3.75,3.75,0,0,1,2.5,18V6.5A3.75,3.75,0,0,1,6.25,2.75h15.5A3.75,3.75,0,0,1,25.5,6.5V18A3.75,3.75,0,0,1,21.75,21.75Z" transform="translate(-2.5 -2.75)" fill="#606770"/>
</svg>
