<svg xmlns="http://www.w3.org/2000/svg" width="24.503" height="22.958" viewBox="0 0 24.503 22.958">
  <path id="Path_11" data-name="Path 11" d="M17.5,23.979h3.75a.253.253,0,0,0,.25-.25v-9.75a1,1,0,0,1,1-1h1.83L14.017,4.046,3.672,12.979H5.5a1,1,0,0,1,1,1v9.75a.254.254,0,0,0,.25.25H10.5v-6.25a1.252,1.252,0,0,1,1.25-1.25h4.5a1.252,1.252,0,0,1,1.25,1.25Zm3.75,1.5H17a1,1,0,0,1-1-1V18.327a.348.348,0,0,0-.348-.348h-3.3a.348.348,0,0,0-.348.348v6.152a1,1,0,0,1-1,1H6.75A1.751,1.751,0,0,1,5,23.729v-9.25H3.069a1.31,1.31,0,0,1-1.2-.72,1.243,1.243,0,0,1,.307-1.469L13,2.912a1.473,1.473,0,0,1,.988-.391,1.513,1.513,0,0,1,1.038.416l10.794,9.349,0,0a1.242,1.242,0,0,1,.308,1.469,1.312,1.312,0,0,1-1.2.72H23v9.25A1.75,1.75,0,0,1,21.25,25.479Z" transform="translate(-1.749 -2.521)" fill="#606770"/>
</svg>
