<svg xmlns="http://www.w3.org/2000/svg" width="15.509" height="16" viewBox="0 0 15.509 16">
  <path id="Path_6" data-name="Path 6" d="M6.406,17.311a26.179,26.179,0,0,0,4.667-.481,2.616,2.616,0,0,1-4.682.481Zm12.038-5.469c.174.9-.455,1.69-1.87,2.359a23.035,23.035,0,0,1-5.348,1.616,25.581,25.581,0,0,1-4.819.524c-.3,0-.55-.008-.746-.02-1.562-.09-2.443-.59-2.618-1.487a2.8,2.8,0,0,1,.847-2.751l.183-.229c.467-.593.65-1.175.351-2.711-.669-3.44.881-5.791,4.25-6.45s5.689.947,6.358,4.388c.3,1.536.686,2.007,1.342,2.381h0l.255.145A2.8,2.8,0,0,1,18.444,11.842Z" transform="translate(-2.963 -2.551)" fill="#1d1f23"/>
</svg>
